<svg width="1440" height="1360" viewBox="0 0 1440 1360" fill="none" xmlns="http://www.w3.org/2000/svg">
<g filter="url(#filter0_d)">
<rect width="1440" height="1360" fill="url(#paint0_linear)"/>
<rect width="1440" height="1360" fill="url(#paint1_linear)"/>
</g>
<g filter="url(#filter1_d)">
<path fill-rule="evenodd" clip-rule="evenodd" d="M-79 765L-10.5833 686.667C57.8333 608.333 194.667 451.667 331.5 483C468.333 514.333 605.167 733.667 742 859C878.833 984.333 1015.67 1015.67 1152.5 921.667C1289.33 827.667 1426.17 608.333 1494.58 498.667L1563 389V1235H1494.58C1426.17 1235 1289.33 1235 1152.5 1235C1015.67 1235 878.833 1235 742 1235C605.167 1235 468.333 1235 331.5 1235C194.667 1235 57.8333 1235 -10.5833 1235H-79V765Z" fill="url(#paint2_linear)"/>
<path fill-rule="evenodd" clip-rule="evenodd" d="M-79 765L-10.5833 686.667C57.8333 608.333 194.667 451.667 331.5 483C468.333 514.333 605.167 733.667 742 859C878.833 984.333 1015.67 1015.67 1152.5 921.667C1289.33 827.667 1426.17 608.333 1494.58 498.667L1563 389V1235H1494.58C1426.17 1235 1289.33 1235 1152.5 1235C1015.67 1235 878.833 1235 742 1235C605.167 1235 468.333 1235 331.5 1235C194.667 1235 57.8333 1235 -10.5833 1235H-79V765Z" stroke="black"/>
</g>
<g filter="url(#filter2_d)">
<path fill-rule="evenodd" clip-rule="evenodd" d="M0 1105.58L34 1076.58C69 1047.58 137 990.576 206 961.576C274 932.576 343 932.576 411 997.576C480 1062.58 549 1191.58 617 1198.58C686 1206.58 754 1090.58 823 1090.58C891 1090.58 960 1206.58 1029 1227.58C1097 1249.58 1166 1177.58 1234 1119.58C1303 1062.58 1371 1018.58 1406 997.576L1440 975.576V1364.58H1406C1371 1364.58 1303 1364.58 1234 1364.58C1166 1364.58 1097 1364.58 1029 1364.58C960 1364.58 891 1364.58 823 1364.58C754 1364.58 686 1364.58 617 1364.58C549 1364.58 480 1364.58 411 1364.58C343 1364.58 274 1364.58 206 1364.58C137 1364.58 69 1364.58 34 1364.58H0V1105.58Z" fill="url(#paint3_linear)"/>
<path fill-rule="evenodd" clip-rule="evenodd" d="M0 1105.58L34 1076.58C69 1047.58 137 990.576 206 961.576C274 932.576 343 932.576 411 997.576C480 1062.58 549 1191.58 617 1198.58C686 1206.58 754 1090.58 823 1090.58C891 1090.58 960 1206.58 1029 1227.58C1097 1249.58 1166 1177.58 1234 1119.58C1303 1062.58 1371 1018.58 1406 997.576L1440 975.576V1364.58H1406C1371 1364.58 1303 1364.58 1234 1364.58C1166 1364.58 1097 1364.58 1029 1364.58C960 1364.58 891 1364.58 823 1364.58C754 1364.58 686 1364.58 617 1364.58C549 1364.58 480 1364.58 411 1364.58C343 1364.58 274 1364.58 206 1364.58C137 1364.58 69 1364.58 34 1364.58H0V1105.58Z" stroke="black"/>
</g>
<g filter="url(#filter3_d)">
<path fill-rule="evenodd" clip-rule="evenodd" d="M0 389L34 353C69 317 137 245 206 180C274 115 343 58 411 65C480 72 549 144 617 209C686 274 754 331 823 346C891 360 960 331 1029 302C1097 274 1166 245 1234 238C1303 230 1371 245 1406 252L1440 259V0H1406C1371 0 1303 0 1234 0C1166 0 1097 0 1029 0C960 0 891 0 823 0C754 0 686 0 617 0C549 0 480 0 411 0C343 0 274 0 206 0C137 0 69 0 34 0H0V389Z" fill="url(#paint4_linear)"/>
<path fill-rule="evenodd" clip-rule="evenodd" d="M0 389L34 353C69 317 137 245 206 180C274 115 343 58 411 65C480 72 549 144 617 209C686 274 754 331 823 346C891 360 960 331 1029 302C1097 274 1166 245 1234 238C1303 230 1371 245 1406 252L1440 259V0H1406C1371 0 1303 0 1234 0C1166 0 1097 0 1029 0C960 0 891 0 823 0C754 0 686 0 617 0C549 0 480 0 411 0C343 0 274 0 206 0C137 0 69 0 34 0H0V389Z" stroke="black"/>
</g>
<rect x="-259" y="2" width="1808" height="1360" fill="#8DC2FF" fill-opacity="0.2"/>
<defs>
<filter id="filter0_d" x="-4" y="0" width="1448" height="1368" filterUnits="userSpaceOnUse" color-interpolation-filters="sRGB">
<feFlood flood-opacity="0" result="BackgroundImageFix"/>
<feColorMatrix in="SourceAlpha" type="matrix" values="0 0 0 0 0 0 0 0 0 0 0 0 0 0 0 0 0 0 127 0"/>
<feOffset dy="4"/>
<feGaussianBlur stdDeviation="2"/>
<feColorMatrix type="matrix" values="0 0 0 0 0 0 0 0 0 0 0 0 0 0 0 0 0 0 0.25 0"/>
<feBlend mode="normal" in2="BackgroundImageFix" result="effect1_dropShadow"/>
<feBlend mode="normal" in="SourceGraphic" in2="effect1_dropShadow" result="shape"/>
</filter>
<filter id="filter1_d" x="-109" y="369" width="1702" height="906" filterUnits="userSpaceOnUse" color-interpolation-filters="sRGB">
<feFlood flood-opacity="0" result="BackgroundImageFix"/>
<feColorMatrix in="SourceAlpha" type="matrix" values="0 0 0 0 0 0 0 0 0 0 0 0 0 0 0 0 0 0 127 0"/>
<feOffset dy="10"/>
<feGaussianBlur stdDeviation="15"/>
<feColorMatrix type="matrix" values="0 0 0 0 0 0 0 0 0 0 0 0 0 0 0 0 0 0 0.25 0"/>
<feBlend mode="normal" in2="BackgroundImageFix" result="effect1_dropShadow"/>
<feBlend mode="normal" in="SourceGraphic" in2="effect1_dropShadow" result="shape"/>
</filter>
<filter id="filter2_d" x="-30" y="923" width="1500" height="481.576" filterUnits="userSpaceOnUse" color-interpolation-filters="sRGB">
<feFlood flood-opacity="0" result="BackgroundImageFix"/>
<feColorMatrix in="SourceAlpha" type="matrix" values="0 0 0 0 0 0 0 0 0 0 0 0 0 0 0 0 0 0 127 0"/>
<feOffset dy="10"/>
<feGaussianBlur stdDeviation="15"/>
<feColorMatrix type="matrix" values="0 0 0 0 0 0 0 0 0 0 0 0 0 0 0 0 0 0 0.25 0"/>
<feBlend mode="normal" in2="BackgroundImageFix" result="effect1_dropShadow"/>
<feBlend mode="normal" in="SourceGraphic" in2="effect1_dropShadow" result="shape"/>
</filter>
<filter id="filter3_d" x="-30" y="-20" width="1500" height="449" filterUnits="userSpaceOnUse" color-interpolation-filters="sRGB">
<feFlood flood-opacity="0" result="BackgroundImageFix"/>
<feColorMatrix in="SourceAlpha" type="matrix" values="0 0 0 0 0 0 0 0 0 0 0 0 0 0 0 0 0 0 127 0"/>
<feOffset dy="10"/>
<feGaussianBlur stdDeviation="15"/>
<feColorMatrix type="matrix" values="0 0 0 0 0 0 0 0 0 0 0 0 0 0 0 0 0 0 0.25 0"/>
<feBlend mode="normal" in2="BackgroundImageFix" result="effect1_dropShadow"/>
<feBlend mode="normal" in="SourceGraphic" in2="effect1_dropShadow" result="shape"/>
</filter>
<linearGradient id="paint0_linear" x1="720" y1="0" x2="720" y2="1360" gradientUnits="userSpaceOnUse">
<stop offset="0.104167" stop-color="#EE2222"/>
<stop offset="0.666667" stop-color="#FF0098"/>
</linearGradient>
<linearGradient id="paint1_linear" x1="720" y1="0" x2="720" y2="1360" gradientUnits="userSpaceOnUse">
<stop offset="0.0833333" stop-color="#EE2222"/>
<stop offset="0.645833" stop-color="#C60000"/>
</linearGradient>
<linearGradient id="paint2_linear" x1="742" y1="389" x2="742" y2="1235" gradientUnits="userSpaceOnUse">
<stop stop-color="#5BC0EB"/>
<stop offset="1" stop-color="#00A0E4"/>
</linearGradient>
<linearGradient id="paint3_linear" x1="720" y1="943" x2="720" y2="1364.58" gradientUnits="userSpaceOnUse">
<stop stop-color="#FDE74C"/>
<stop offset="0.9998" stop-color="#E4C800"/>
<stop offset="0.9999" stop-color="#1B01BB"/>
</linearGradient>
<linearGradient id="paint4_linear" x1="720" y1="0" x2="720" y2="389" gradientUnits="userSpaceOnUse">
<stop stop-color="#5BC0EB"/>
<stop offset="1" stop-color="#00A0E4"/>
</linearGradient>
</defs>
</svg>
