<svg width="1680" height="564" viewBox="0 0 1680 564" fill="none" xmlns="http://www.w3.org/2000/svg" preserveAspectRatio="none">
<g filter="url(#filter0_d)">
<path fill-rule="evenodd" clip-rule="evenodd" d="M-6.76675e-05 524L39.6666 475.506C80.4999 427.013 159.833 330.026 240.333 242.468C319.667 154.91 400.167 78.1284 479.5 87.5577C560 96.987 640.5 193.974 719.833 281.532C800.333 369.09 879.667 445.871 960.167 466.077C1039.5 484.936 1120 445.871 1200.5 406.807C1279.83 369.09 1360.33 330.025 1439.67 320.596C1520.17 309.82 1599.5 330.026 1640.33 339.455L1680 348.884L1680 -0.000140645L1640.33 -0.000140207C1599.5 -0.000139755 1520.17 -0.000138878 1439.67 -0.000137988C1360.33 -0.000137111 1279.83 -0.000136221 1200.5 -0.000135344C1120 -0.000134454 1039.5 -0.000133564 960.167 -0.000132686C879.667 -0.000131796 800.333 -0.000130919 719.833 -0.000130029C640.5 -0.000129152 560 -0.000128262 479.5 -0.000127372C400.167 -0.000126495 319.667 -0.000125605 240.333 -0.000124728C159.833 -0.000123838 80.4999 -0.00012296 39.6666 -0.000122509L-6.10352e-05 -0.00012207L-6.76675e-05 524Z" fill="url(#paint0_linear)"/>
<path fill-rule="evenodd" clip-rule="evenodd" d="M-6.76675e-05 524L39.6666 475.506C80.4999 427.013 159.833 330.026 240.333 242.468C319.667 154.91 400.167 78.1284 479.5 87.5577C560 96.987 640.5 193.974 719.833 281.532C800.333 369.09 879.667 445.871 960.167 466.077C1039.5 484.936 1120 445.871 1200.5 406.807C1279.83 369.09 1360.33 330.025 1439.67 320.596C1520.17 309.82 1599.5 330.026 1640.33 339.455L1680 348.884L1680 -0.000140645L1640.33 -0.000140207C1599.5 -0.000139755 1520.17 -0.000138878 1439.67 -0.000137988C1360.33 -0.000137111 1279.83 -0.000136221 1200.5 -0.000135344C1120 -0.000134454 1039.5 -0.000133564 960.167 -0.000132686C879.667 -0.000131796 800.333 -0.000130919 719.833 -0.000130029C640.5 -0.000129152 560 -0.000128262 479.5 -0.000127372C400.167 -0.000126495 319.667 -0.000125605 240.333 -0.000124728C159.833 -0.000123838 80.4999 -0.00012296 39.6666 -0.000122509L-6.10352e-05 -0.00012207L-6.76675e-05 524Z" fill="url(#paint1_linear)" fill-opacity="0.5"/>
<path fill-rule="evenodd" clip-rule="evenodd" d="M-6.76675e-05 524L39.6666 475.506C80.4999 427.013 159.833 330.026 240.333 242.468C319.667 154.91 400.167 78.1284 479.5 87.5577C560 96.987 640.5 193.974 719.833 281.532C800.333 369.09 879.667 445.871 960.167 466.077C1039.5 484.936 1120 445.871 1200.5 406.807C1279.83 369.09 1360.33 330.025 1439.67 320.596C1520.17 309.82 1599.5 330.026 1640.33 339.455L1680 348.884L1680 -0.000140645L1640.33 -0.000140207C1599.5 -0.000139755 1520.17 -0.000138878 1439.67 -0.000137988C1360.33 -0.000137111 1279.83 -0.000136221 1200.5 -0.000135344C1120 -0.000134454 1039.5 -0.000133564 960.167 -0.000132686C879.667 -0.000131796 800.333 -0.000130919 719.833 -0.000130029C640.5 -0.000129152 560 -0.000128262 479.5 -0.000127372C400.167 -0.000126495 319.667 -0.000125605 240.333 -0.000124728C159.833 -0.000123838 80.4999 -0.00012296 39.6666 -0.000122509L-6.10352e-05 -0.00012207L-6.76675e-05 524Z" fill="url(#paint2_linear)" fill-opacity="0.5"/>
</g>
<defs>
<filter id="filter0_d" x="-30.0001" y="-20.0001" width="1740" height="584" filterUnits="userSpaceOnUse" color-interpolation-filters="sRGB">
<feFlood flood-opacity="0" result="BackgroundImageFix"/>
<feColorMatrix in="SourceAlpha" type="matrix" values="0 0 0 0 0 0 0 0 0 0 0 0 0 0 0 0 0 0 127 0"/>
<feOffset dy="10"/>
<feGaussianBlur stdDeviation="15"/>
<feColorMatrix type="matrix" values="0 0 0 0 0.520833 0 0 0 0 0.3773 0 0 0 0 0.0976562 0 0 0 0.3 0"/>
<feBlend mode="normal" in2="BackgroundImageFix" result="effect1_dropShadow"/>
<feBlend mode="normal" in="SourceGraphic" in2="effect1_dropShadow" result="shape"/>
</filter>
<linearGradient id="paint0_linear" x1="840" y1="-0.000131358" x2="840" y2="524" gradientUnits="userSpaceOnUse">
<stop stop-color="#EBBA5B"/>
<stop offset="1" stop-color="#DA9000"/>
</linearGradient>
<linearGradient id="paint1_linear" x1="840" y1="-0.000131358" x2="840" y2="524" gradientUnits="userSpaceOnUse">
<stop stop-color="#FAAE0A"/>
<stop offset="1" stop-color="#F3C249"/>
</linearGradient>
<linearGradient id="paint2_linear" x1="840" y1="-0.000131358" x2="840" y2="524" gradientUnits="userSpaceOnUse">
<stop stop-color="#FAAE0A"/>
<stop offset="1" stop-color="#F3C249"/>
</linearGradient>
</defs>
</svg>
